<?xml version="1.0" encoding="utf-8"?>
<!-- Generator: Adobe Illustrator 28.4.1, SVG Export Plug-In . SVG Version: 6.00 Build 0)  -->
<svg version="1.1" id="Layer_1" xmlns="http://www.w3.org/2000/svg" xmlns:xlink="http://www.w3.org/1999/xlink" x="0px" y="0px"
	 viewBox="0 0 191.56 38.86" style="enable-background:new 0 0 191.56 38.86;" xml:space="preserve">
<style type="text/css">
	.st0{fill:#92E600;}
	.st1{fill:#FFFFFF;}
	.st2{fill:#0B0F0C;}
</style>
<g>
	<g>
		<path class="st1" d="M9.75,29.41L5.1,12.53h2.93l2.88,11.12c0.05,0.18,0.11,0.43,0.17,0.74c0.07,0.31,0.13,0.64,0.18,0.97
			c0.06,0.34,0.11,0.64,0.16,0.92h0.15c0.05-0.21,0.09-0.44,0.12-0.69c0.03-0.25,0.07-0.49,0.12-0.74c0.05-0.25,0.09-0.48,0.14-0.69
			c0.04-0.21,0.07-0.39,0.09-0.52l2.66-11.12h3.54l2.68,11.12c0.05,0.18,0.11,0.43,0.17,0.74c0.07,0.31,0.13,0.64,0.18,0.97
			c0.06,0.34,0.11,0.64,0.16,0.92h0.15c0.03-0.2,0.07-0.42,0.12-0.66c0.05-0.25,0.1-0.49,0.15-0.73c0.05-0.24,0.1-0.46,0.16-0.68
			c0.06-0.21,0.1-0.4,0.14-0.57l2.88-11.12h2.61l-4.65,16.87h-3.22l-2.83-11.26c-0.05-0.25-0.11-0.53-0.17-0.85
			c-0.07-0.32-0.13-0.65-0.18-0.98c-0.06-0.34-0.1-0.63-0.14-0.87h-0.12c-0.03,0.26-0.07,0.57-0.12,0.91
			c-0.05,0.34-0.11,0.68-0.17,1c-0.07,0.32-0.12,0.59-0.17,0.8l-2.78,11.26H9.75z"/>
		<path class="st1" d="M37.19,29.7c-1.74,0-3.24-0.32-4.51-0.96c-1.27-0.64-2.25-1.61-2.93-2.9c-0.68-1.29-1.02-2.92-1.02-4.87
			c0-1.97,0.34-3.59,1.02-4.88c0.68-1.29,1.66-2.25,2.93-2.89c1.27-0.64,2.77-0.96,4.51-0.96c1.77,0,3.29,0.32,4.55,0.96
			c1.26,0.64,2.23,1.6,2.91,2.89c0.68,1.29,1.02,2.91,1.02,4.88c0,1.95-0.34,3.57-1.02,4.87c-0.68,1.3-1.65,2.26-2.91,2.9
			C40.48,29.38,38.96,29.7,37.19,29.7z M37.19,27.36c0.9,0,1.7-0.12,2.4-0.37s1.29-0.62,1.77-1.13c0.48-0.51,0.85-1.15,1.11-1.92
			c0.25-0.77,0.38-1.66,0.38-2.68v-0.54c0-1.05-0.13-1.96-0.38-2.73c-0.25-0.77-0.62-1.41-1.11-1.92c-0.48-0.51-1.07-0.89-1.77-1.13
			c-0.7-0.25-1.5-0.37-2.4-0.37c-0.89,0-1.68,0.12-2.37,0.37c-0.7,0.25-1.29,0.62-1.77,1.13c-0.48,0.51-0.85,1.15-1.09,1.92
			c-0.25,0.77-0.37,1.68-0.37,2.73v0.54c0,1.02,0.12,1.91,0.37,2.68c0.25,0.77,0.61,1.41,1.09,1.92c0.48,0.51,1.07,0.89,1.77,1.13
			S36.31,27.36,37.19,27.36z"/>
		<path class="st1" d="M48.85,29.41V12.53h8.88c1.2,0,2.19,0.21,2.98,0.64c0.79,0.43,1.38,1.02,1.77,1.78
			c0.39,0.76,0.59,1.65,0.59,2.67c0,1.13-0.25,2.12-0.76,2.95c-0.51,0.84-1.23,1.45-2.16,1.84l3.52,6.98h-3l-3.2-6.52h-5.85v6.52
			H48.85z M51.61,20.58h5.9c0.89,0,1.57-0.26,2.05-0.79c0.48-0.52,0.73-1.25,0.73-2.19c0-0.57-0.11-1.06-0.32-1.46
			c-0.21-0.4-0.52-0.71-0.93-0.92s-0.92-0.32-1.52-0.32h-5.9V20.58z"/>
		<path class="st1" d="M66.61,29.41V12.53h2.75v8.41l8.04-8.41h3.39l-6.49,6.79l6.67,10.08h-3.25l-5.29-8.14l-3.07,2.83v5.31H66.61z
			"/>
		<path class="st1" d="M83.26,29.41V12.53h12.05v2.36h-9.3v4.99h8.41v2.34h-8.41v7.18H83.26z"/>
		<path class="st1" d="M98.28,29.41V12.53h2.75v14.48h8.41v2.39H98.28z"/>
		<path class="st1" d="M118.77,29.7c-1.74,0-3.24-0.32-4.51-0.96c-1.27-0.64-2.25-1.61-2.93-2.9c-0.68-1.29-1.02-2.92-1.02-4.87
			c0-1.97,0.34-3.59,1.02-4.88c0.68-1.29,1.66-2.25,2.93-2.89c1.27-0.64,2.77-0.96,4.51-0.96c1.77,0,3.29,0.32,4.55,0.96
			c1.26,0.64,2.23,1.6,2.91,2.89c0.68,1.29,1.02,2.91,1.02,4.88c0,1.95-0.34,3.57-1.02,4.87c-0.68,1.3-1.65,2.26-2.91,2.9
			C122.05,29.38,120.54,29.7,118.77,29.7z M118.77,27.36c0.9,0,1.7-0.12,2.4-0.37s1.29-0.62,1.77-1.13
			c0.48-0.51,0.85-1.15,1.11-1.92c0.25-0.77,0.38-1.66,0.38-2.68v-0.54c0-1.05-0.13-1.96-0.38-2.73c-0.25-0.77-0.62-1.41-1.11-1.92
			c-0.48-0.51-1.07-0.89-1.77-1.13c-0.7-0.25-1.5-0.37-2.4-0.37c-0.89,0-1.68,0.12-2.37,0.37c-0.7,0.25-1.29,0.62-1.77,1.13
			c-0.48,0.51-0.85,1.15-1.09,1.92c-0.25,0.77-0.37,1.68-0.37,2.73v0.54c0,1.02,0.12,1.91,0.37,2.68c0.25,0.77,0.61,1.41,1.09,1.92
			c0.48,0.51,1.07,0.89,1.77,1.13S117.88,27.36,118.77,27.36z"/>
		<path class="st1" d="M133.01,29.41l-4.65-16.87h2.93l2.88,11.12c0.05,0.18,0.11,0.43,0.17,0.74c0.07,0.31,0.13,0.64,0.18,0.97
			c0.06,0.34,0.11,0.64,0.16,0.92h0.15c0.05-0.21,0.09-0.44,0.12-0.69c0.03-0.25,0.07-0.49,0.12-0.74c0.05-0.25,0.09-0.48,0.14-0.69
			c0.04-0.21,0.07-0.39,0.09-0.52l2.66-11.12h3.54l2.68,11.12c0.05,0.18,0.11,0.43,0.17,0.74c0.07,0.31,0.13,0.64,0.18,0.97
			c0.06,0.34,0.11,0.64,0.16,0.92h0.15c0.03-0.2,0.07-0.42,0.12-0.66c0.05-0.25,0.1-0.49,0.15-0.73c0.05-0.24,0.1-0.46,0.16-0.68
			c0.06-0.21,0.1-0.4,0.14-0.57l2.88-11.12h2.61l-4.65,16.87h-3.22l-2.83-11.26c-0.05-0.25-0.11-0.53-0.17-0.85
			c-0.07-0.32-0.13-0.65-0.18-0.98c-0.06-0.34-0.1-0.63-0.14-0.87h-0.12c-0.03,0.26-0.07,0.57-0.12,0.91
			c-0.05,0.34-0.11,0.68-0.17,1c-0.07,0.32-0.12,0.59-0.17,0.8l-2.78,11.26H133.01z"/>
	</g>
	<g>
		<path class="st0" d="M186.29,25.4c0-0.3,0-0.59,0-0.87c0-2.03,0.01-4.07,0-6.1c0-0.12-0.08-0.27-0.17-0.36
			c-2.48-2.51-4.97-5.02-7.45-7.53c-2.61-2.65-5.22-5.3-7.82-7.96c-0.14-0.15-0.28-0.3-0.47-0.5c-0.01,0.16-0.02,0.23-0.02,0.31
			c0,2.47,0,4.95,0.01,7.42c0,0.11,0.06,0.24,0.14,0.32c2.86,2.81,5.72,5.61,8.59,8.4c0.68,0.67,1.38,1.33,2.11,2.04
			c-2.12,0-4.18,0-6.25,0c0,1.62,0,3.21,0,4.82C178.71,25.4,182.48,25.4,186.29,25.4z"/>
		<path class="st0" d="M158.25,12.92c0,0.3,0,0.59,0,0.87c0,2.03-0.01,4.07,0,6.1c0,0.12,0.08,0.27,0.17,0.36
			c2.48,2.51,4.97,5.02,7.45,7.53c2.61,2.65,5.22,5.3,7.82,7.96c0.14,0.15,0.28,0.3,0.47,0.5c0.01-0.16,0.02-0.23,0.02-0.31
			c0-2.47,0-4.95-0.01-7.42c0-0.11-0.06-0.24-0.14-0.32c-2.86-2.81-5.72-5.61-8.59-8.4c-0.68-0.67-1.38-1.33-2.11-2.04
			c2.12,0,4.18,0,6.25,0c0-1.62,0-3.21,0-4.82C165.83,12.92,162.06,12.92,158.25,12.92z"/>
	</g>
</g>
</svg>
